<?xml version="1.0" encoding="UTF-8" standalone="no"?>
<svg xmlns:dc="http://purl.org/dc/elements/1.1/" xmlns:cc="http://creativecommons.org/ns#"
    xmlns:rdf="http://www.w3.org/1999/02/22-rdf-syntax-ns#" xmlns="http://www.w3.org/2000/svg"
    xmlns:xlink="http://www.w3.org/1999/xlink"
    xmlns:sodipodi="http://sodipodi.sourceforge.net/DTD/sodipodi-0.dtd"
    xmlns:inkscape="http://www.inkscape.org/namespaces/inkscape" sodipodi:docname="logo-idea.svg"
    inkscape:version="1.0beta2 (2b71d25, 2019-12-03)" id="svg8" version="1.1"
    viewBox="0 0 67.733332 67.733335" height="256" width="256">
  <defs id="defs2">
    <linearGradient inkscape:collect="always" id="linearGradient1398">
      <stop style="stop-color:#fffbfb;stop-opacity:1" offset="0" id="stop1396" />
      <stop id="stop1394" offset="0.69726792" style="stop-color:#f4d5f5;stop-opacity:1" />
      <stop style="stop-color:#da75e3;stop-opacity:1" offset="1" id="stop1392" />
    </linearGradient>
    <linearGradient inkscape:collect="always" id="linearGradient1273">
      <stop style="stop-color:#fff9f9;stop-opacity:1" offset="0" id="stop1267" />
      <stop id="stop1269" offset="0.51427352" style="stop-color:#f9b5f9;stop-opacity:1" />
      <stop style="stop-color:#dc66a6;stop-opacity:1" offset="1" id="stop1271" />
    </linearGradient>
    <linearGradient id="linearGradient1154" inkscape:collect="always">
      <stop style="stop-color:#da75e3;stop-opacity:1" offset="0" id="stop1148" />
      <stop id="stop1150" offset="0.30273208" style="stop-color:#f4d5f5;stop-opacity:1" />
      <stop style="stop-color:#fffbfb;stop-opacity:1" offset="1" id="stop1152" />
    </linearGradient>
    <linearGradient inkscape:collect="always" id="linearGradient1146">
      <stop style="stop-color:#5c3d91;stop-opacity:1" offset="0" id="stop1142" />
      <stop style="stop-color:#ff559c;stop-opacity:1" offset="1" id="stop1144" />
    </linearGradient>
    <linearGradient id="linearGradient1060" inkscape:collect="always">
      <stop id="stop1056" offset="0" style="stop-color:#ff652d;stop-opacity:1" />
      <stop id="stop1058" offset="1" style="stop-color:#ff0a6b;stop-opacity:1" />
    </linearGradient>
    <linearGradient id="linearGradient937" inkscape:collect="always">
      <stop id="stop933" offset="0" style="stop-color:#fc74a2;stop-opacity:1" />
      <stop id="stop935" offset="1" style="stop-color:#fc74a2;stop-opacity:1" />
    </linearGradient>
    <clipPath id="clipPath856" clipPathUnits="userSpaceOnUse">
      <path inkscape:connector-curvature="0" id="path858"
          style="color:#000000;font-style:normal;font-variant:normal;font-weight:normal;font-stretch:normal;font-size:medium;line-height:normal;font-family:sans-serif;font-variant-ligatures:normal;font-variant-position:normal;font-variant-caps:normal;font-variant-numeric:normal;font-variant-alternates:normal;font-variant-east-asian:normal;font-feature-settings:normal;font-variation-settings:normal;text-indent:0;text-align:start;text-decoration:none;text-decoration-line:none;text-decoration-style:solid;text-decoration-color:#000000;letter-spacing:normal;word-spacing:normal;text-transform:none;writing-mode:lr-tb;direction:ltr;text-orientation:mixed;dominant-baseline:auto;baseline-shift:baseline;text-anchor:start;white-space:normal;shape-padding:0;shape-margin:0;inline-size:0;clip-rule:nonzero;display:inline;overflow:visible;visibility:visible;isolation:auto;mix-blend-mode:normal;color-interpolation:sRGB;color-interpolation-filters:linearRGB;solid-color:#000000;solid-opacity:1;vector-effect:none;fill:#130000;fill-opacity:1;fill-rule:nonzero;stroke:none;stroke-width:10.5833;stroke-linecap:butt;stroke-linejoin:round;stroke-miterlimit:4;stroke-dasharray:none;stroke-dashoffset:0;stroke-opacity:1;color-rendering:auto;image-rendering:auto;shape-rendering:auto;text-rendering:auto;enable-background:accumulate;stop-color:#000000"
          d="m 166.57536,44.061393 a 5.2921956,5.2921956 0 0 0 -0.11421,0.0011 5.2921956,5.2921956 0 0 0 -5.18986,5.289079 v 26.728605 a 5.2921956,5.2921956 0 0 0 7.96127,4.568192 L 192.0937,67.28528 a 5.2921956,5.2921956 0 0 0 0,-9.136909 L 169.23256,44.785362 a 5.2921956,5.2921956 0 0 0 -2.6572,-0.723987 z" />
    </clipPath>
    <filter id="filter4346" inkscape:label="z-depth2" style="color-interpolation-filters:sRGB">
      <feFlood id="feFlood4348" result="flood" flood-color="rgb(0,0,0)" flood-opacity="0.16" />
      <feComposite id="feComposite4350" result="composite1" operator="in" in2="SourceGraphic"
          in="flood" />
      <feGaussianBlur id="feGaussianBlur4352" result="blur" stdDeviation="3" />
      <feOffset id="feOffset4354" result="offset" dy="3" dx="0" />
      <feComposite id="feComposite4356" result="fbSourceGraphic" operator="over" in2="offset"
          in="SourceGraphic" />
      <feColorMatrix id="feColorMatrix4358" values="0 0 0 -1 0 0 0 0 -1 0 0 0 0 -1 0 0 0 0 1 0"
          in="fbSourceGraphic" result="fbSourceGraphicAlpha" />
      <feFlood in="fbSourceGraphic" result="flood" flood-color="rgb(0,0,0)" flood-opacity="0.23"
          id="feFlood4360" />
      <feComposite result="composite1" operator="in" in="flood" in2="fbSourceGraphic"
          id="feComposite4362" />
      <feGaussianBlur result="blur" stdDeviation="3" id="feGaussianBlur4364" />
      <feOffset result="offset" dy="3" dx="0" id="feOffset4366" />
      <feComposite result="composite2" operator="over" in="fbSourceGraphic" in2="offset"
          id="feComposite4368" />
    </filter>
    <filter id="filter4375" inkscape:label="z-depth3" style="color-interpolation-filters:sRGB">
      <feFlood id="feFlood4377" result="flood" flood-color="rgb(0,0,0)"
          flood-opacity="0.089999999999999997" />
      <feComposite id="feComposite4379" result="composite1" operator="in" in2="SourceGraphic"
          in="flood" />
      <feGaussianBlur id="feGaussianBlur4381" result="blur" stdDeviation="10" />
      <feOffset id="feOffset4383" result="offset" dy="10" dx="0" />
      <feComposite id="feComposite4385" result="fbSourceGraphic" operator="over" in2="offset"
          in="SourceGraphic" />
      <feColorMatrix id="feColorMatrix4387" values="0 0 0 -1 0 0 0 0 -1 0 0 0 0 -1 0 0 0 0 1 0"
          in="fbSourceGraphic" result="fbSourceGraphicAlpha" />
      <feFlood in="fbSourceGraphic" result="flood" flood-color="rgb(0,0,0)" flood-opacity="0.13"
          id="feFlood4389" />
      <feComposite result="composite1" operator="in" in="flood" in2="fbSourceGraphic"
          id="feComposite4391" />
      <feGaussianBlur result="blur" stdDeviation="3" id="feGaussianBlur4393" />
      <feOffset result="offset" dy="6" dx="0" id="feOffset4395" />
      <feComposite result="composite2" operator="over" in="fbSourceGraphic" in2="offset"
          id="feComposite4397" />
    </filter>
    <filter id="filter4419" inkscape:label="z-depth4" style="color-interpolation-filters:sRGB">
      <feFlood id="feFlood4421" result="flood" flood-color="rgb(0,0,0)" flood-opacity="0.25" />
      <feComposite id="feComposite4423" result="composite1" operator="in" in2="SourceGraphic"
          in="flood" />
      <feGaussianBlur id="feGaussianBlur4425" result="blur" stdDeviation="14" />
      <feOffset id="feOffset4427" result="offset" dy="14" dx="-6" />
      <feComposite id="feComposite4429" result="fbSourceGraphic" operator="over" in2="offset"
          in="SourceGraphic" />
      <feColorMatrix id="feColorMatrix4431" values="0 0 0 -1 0 0 0 0 -1 0 0 0 0 -1 0 0 0 0 1 0"
          in="fbSourceGraphic" result="fbSourceGraphicAlpha" />
      <feFlood in="fbSourceGraphic" result="flood" flood-color="rgb(0,0,0)" flood-opacity="0.22"
          id="feFlood4433" />
      <feComposite result="composite1" operator="in" in="flood" in2="fbSourceGraphic"
          id="feComposite4435" />
      <feGaussianBlur result="blur" stdDeviation="5" id="feGaussianBlur4437" />
      <feOffset result="offset" dy="10" dx="-10" id="feOffset4439" />
      <feComposite result="composite2" operator="over" in="fbSourceGraphic" in2="offset"
          id="feComposite4441" />
    </filter>
    <clipPath id="clipPath1042" clipPathUnits="userSpaceOnUse">
      <path inkscape:connector-curvature="0"
          style="color:#000000;font-style:normal;font-variant:normal;font-weight:normal;font-stretch:normal;font-size:medium;line-height:normal;font-family:sans-serif;font-variant-ligatures:normal;font-variant-position:normal;font-variant-caps:normal;font-variant-numeric:normal;font-variant-alternates:normal;font-variant-east-asian:normal;font-feature-settings:normal;font-variation-settings:normal;text-indent:0;text-align:start;text-decoration:none;text-decoration-line:none;text-decoration-style:solid;text-decoration-color:#000000;letter-spacing:normal;word-spacing:normal;text-transform:none;writing-mode:lr-tb;direction:ltr;text-orientation:mixed;dominant-baseline:auto;baseline-shift:baseline;text-anchor:start;white-space:normal;shape-padding:0;shape-margin:0;inline-size:0;clip-rule:nonzero;display:inline;overflow:visible;visibility:visible;opacity:1;isolation:auto;mix-blend-mode:normal;color-interpolation:sRGB;color-interpolation-filters:linearRGB;solid-color:#000000;solid-opacity:1;vector-effect:none;fill:url(#linearGradient1046);fill-opacity:1;fill-rule:nonzero;stroke:none;stroke-width:9.99999;stroke-linecap:round;stroke-linejoin:round;stroke-miterlimit:4;stroke-dasharray:none;stroke-dashoffset:0;stroke-opacity:1;color-rendering:auto;image-rendering:auto;shape-rendering:auto;text-rendering:auto;enable-background:accumulate;stop-color:#000000;stop-opacity:1"
          d="m 487.18996,561.51085 a 18.897638,18.897638 0 0 0 -14.71208,7.09399 18.897638,18.897638 0 0 0 2.96013,26.56002 l 45.3174,36.22295 -45.3174,36.23029 a 18.897638,18.897638 0 0 0 -2.96013,26.56006 18.897638,18.897638 0 0 0 26.56003,2.9675 l 63.77952,-50.99407 a 18.899528,18.899528 0 0 0 0,-29.52018 l -63.77952,-50.9867 a 18.897638,18.897638 0 0 0 -11.84795,-4.13386 z"
          id="path1044" />
    </clipPath>
    <linearGradient y2="170.1965" x2="141.74661" y1="184.0549" x1="125.23161"
        gradientUnits="userSpaceOnUse" id="linearGradient1046" xlink:href="#linearGradient937"
        inkscape:collect="always" />
    <linearGradient gradientUnits="userSpaceOnUse" y2="652.33893" x2="554.65558" y1="563.85663"
        x1="478.11887" id="linearGradient1062" xlink:href="#linearGradient1060"
        inkscape:collect="always" />
    <linearGradient y2="566.3385" x2="474.63382" y1="645.44617" x1="563.68085"
        gradientTransform="matrix(0.26458333,0,0,0.26458333,-112.51809,-133.48953)"
        gradientUnits="userSpaceOnUse" id="linearGradient1136" xlink:href="#linearGradient1154"
        inkscape:collect="always" />
    <linearGradient gradientTransform="matrix(1.4064002,0,0,1.4064002,-89.391158,-201.50312)"
        y2="143.2758" x2="111.72104" y1="191.43658" x1="63.560257" gradientUnits="userSpaceOnUse"
        id="linearGradient1140" xlink:href="#linearGradient1146" inkscape:collect="always" />
    <linearGradient y2="170.1965" x2="141.74661" y1="184.0549" x1="125.23161"
        gradientTransform="translate(-112.51809,-133.48953)" gradientUnits="userSpaceOnUse"
        id="linearGradient1265" xlink:href="#linearGradient1273" inkscape:collect="always" />
    <filter id="filter4419-7" inkscape:label="z-depth4" style="color-interpolation-filters:sRGB">
      <feFlood id="feFlood4421-3" result="flood" flood-color="rgb(0,0,0)" flood-opacity="0.25" />
      <feComposite id="feComposite4423-5" result="composite1" operator="in" in2="SourceGraphic"
          in="flood" />
      <feGaussianBlur id="feGaussianBlur4425-0" result="blur" stdDeviation="14" />
      <feOffset id="feOffset4427-4" result="offset" dy="14" dx="0" />
      <feComposite id="feComposite4429-1" result="fbSourceGraphic" operator="over" in2="offset"
          in="SourceGraphic" />
      <feColorMatrix id="feColorMatrix4431-9" values="0 0 0 -1 0 0 0 0 -1 0 0 0 0 -1 0 0 0 0 1 0"
          in="fbSourceGraphic" result="fbSourceGraphicAlpha" />
      <feFlood in="fbSourceGraphic" result="flood" flood-color="rgb(0,0,0)" flood-opacity="0.22"
          id="feFlood4433-4" />
      <feComposite result="composite1" operator="in" in="flood" in2="fbSourceGraphic"
          id="feComposite4435-1" />
      <feGaussianBlur result="blur" stdDeviation="5" id="feGaussianBlur4437-4" />
      <feOffset result="offset" dy="10" dx="0" id="feOffset4439-3" />
      <feComposite result="composite2" operator="over" in="fbSourceGraphic" in2="offset"
          id="feComposite4441-6" />
    </filter>
    <linearGradient y2="566.3385" x2="474.63382" y1="645.44617" x1="563.68085"
        gradientTransform="matrix(0.26458333,0,0,0.26458333,-112.51809,-133.48953)"
        gradientUnits="userSpaceOnUse" id="linearGradient1373" xlink:href="#linearGradient1154"
        inkscape:collect="always" />
    <linearGradient y2="170.77431" x2="149.14053" y1="149.84373" x1="125.58018"
        gradientTransform="matrix(3.7795276,0,0,3.7795276,-391.13034,-503.39516)"
        gradientUnits="userSpaceOnUse" id="linearGradient1385" xlink:href="#linearGradient1398"
        inkscape:collect="always" />
  </defs>
  <sodipodi:namedview units="px" inkscape:window-maximized="0" inkscape:window-y="0"
      inkscape:window-x="0" inkscape:window-height="876" inkscape:window-width="1598"
      showgrid="false" inkscape:document-rotation="0" inkscape:current-layer="layer1"
      inkscape:document-units="mm" inkscape:cy="128" inkscape:cx="128" inkscape:zoom="1.328125"
      inkscape:pageshadow="2" inkscape:pageopacity="0.0" borderopacity="1.0" bordercolor="#666666"
      pagecolor="#ffffff" id="base" />
  <metadata id="metadata5">
    <rdf:RDF>
      <cc:Work rdf:about="">
        <dc:format>image/svg+xml</dc:format>
        <dc:type rdf:resource="http://purl.org/dc/dcmitype/StillImage" />
        <dc:title></dc:title>
      </cc:Work>
    </rdf:RDF>
  </metadata>
  <g id="layer1" inkscape:groupmode="layer" inkscape:label="Layer 1">
    <g id="g1408">
      <rect
          style="font-variation-settings:normal;vector-effect:none;fill:url(#linearGradient1140);fill-opacity:1;stroke:none;stroke-width:0.264583;stroke-linecap:butt;stroke-linejoin:miter;stroke-miterlimit:4;stroke-dasharray:none;stroke-dashoffset:0;stroke-opacity:1;stop-color:#000000"
          id="rect1122" x="0" y="-2.4982686e-15" height="67.733337" width="67.733337" />
      <path id="path1379"
          style="color:#000000;font-style:normal;font-variant:normal;font-weight:normal;font-stretch:normal;font-size:medium;line-height:normal;font-family:sans-serif;font-variant-ligatures:normal;font-variant-position:normal;font-variant-caps:normal;font-variant-numeric:normal;font-variant-alternates:normal;font-variant-east-asian:normal;font-feature-settings:normal;font-variation-settings:normal;text-indent:0;text-align:start;text-decoration:none;text-decoration-line:none;text-decoration-style:solid;text-decoration-color:#000000;letter-spacing:normal;word-spacing:normal;text-transform:none;writing-mode:lr-tb;direction:ltr;text-orientation:mixed;dominant-baseline:auto;baseline-shift:baseline;text-anchor:start;white-space:normal;shape-padding:0;shape-margin:0;inline-size:0;clip-rule:nonzero;display:inline;overflow:visible;visibility:visible;isolation:auto;mix-blend-mode:normal;color-interpolation:sRGB;color-interpolation-filters:linearRGB;solid-color:#000000;solid-opacity:1;vector-effect:none;fill:url(#linearGradient1385);fill-opacity:1;fill-rule:nonzero;stroke:none;stroke-width:37.7953;stroke-linecap:round;stroke-linejoin:round;stroke-miterlimit:4;stroke-dasharray:none;stroke-dashoffset:0;stroke-opacity:1;color-rendering:auto;image-rendering:auto;shape-rendering:auto;text-rendering:auto;enable-background:accumulate;stop-color:#000000;filter:url(#filter4375)"
          d="M 96.058594 58.115234 A 18.897638 18.897638 0 0 0 95.142578 58.140625 C 95.119851 58.141632 95.096943 58.141524 95.074219 58.142578 C 95.059101 58.143485 95.040067 58.143586 95.023438 58.144531 C 95.00454 58.145552 94.982922 58.147568 94.962891 58.148438 C 94.928226 58.150711 94.894021 58.15579 94.859375 58.158203 A 18.897638 18.897638 0 0 0 94.009766 58.232422 C 93.983178 58.235379 93.956245 58.237156 93.929688 58.240234 C 93.915954 58.241834 93.902402 58.244461 93.888672 58.246094 A 18.897638 18.897638 0 0 0 93.871094 58.248047 A 18.897638 18.897638 0 0 0 92.976562 58.376953 C 92.968136 58.378367 92.959595 58.379435 92.951172 58.380859 A 18.897638 18.897638 0 0 0 92.921875 58.384766 C 92.891639 58.388545 92.860692 58.396611 92.830078 58.400391 C 92.824159 58.401574 92.816327 58.403776 92.808594 58.40625 C 92.806451 58.406935 92.805195 58.407383 92.802734 58.408203 A 18.897638 18.897638 0 0 0 92.787109 58.410156 A 18.897638 18.897638 0 0 0 91.818359 58.609375 A 18.897638 18.897638 0 0 0 90.869141 58.855469 C 90.867169 58.856037 90.865253 58.856853 90.863281 58.857422 C 90.863281 58.857422 90.861328 58.859375 90.861328 58.859375 A 18.897638 18.897638 0 0 0 89.824219 59.191406 A 18.897638 18.897638 0 0 0 89.820312 59.191406 C 89.808974 59.19511 89.800401 59.199345 89.789062 59.203125 C 89.785756 59.204295 89.782603 59.205859 89.779297 59.207031 A 18.897638 18.897638 0 0 0 88.873047 59.554688 C 88.869809 59.556032 88.866518 59.557247 88.863281 59.558594 C 88.858151 59.560719 88.852784 59.562323 88.847656 59.564453 A 18.897638 18.897638 0 0 0 87.931641 59.974609 C 87.930329 59.975238 87.929046 59.975933 87.927734 59.976562 A 18.897638 18.897638 0 0 0 87.894531 59.994141 A 18.897638 18.897638 0 0 0 81.347656 65.208984 A 18.897638 18.897638 0 0 0 77.951172 71.775391 A 18.897638 18.897638 0 0 0 77.919922 71.884766 C 77.909717 71.920907 77.898877 71.957857 77.888672 71.994141 C 77.888294 71.995509 77.887096 71.996678 77.886719 71.998047 A 18.897638 18.897638 0 0 0 77.886719 72.001953 A 18.897638 18.897638 0 0 0 77.527344 73.568359 C 77.526857 73.570992 77.525876 73.573539 77.525391 73.576172 C 77.525013 73.578175 77.523815 73.578252 77.523438 73.582031 C 77.512425 73.649572 77.499499 73.717269 77.488281 73.785156 C 77.487949 73.787169 77.486655 73.789003 77.486328 73.791016 L 77.484375 73.802734 C 77.482589 73.813103 77.482238 73.823613 77.480469 73.833984 A 18.897638 18.897638 0 0 0 77.28125 75.392578 C 77.279462 75.41346 77.275152 75.434194 77.273438 75.455078 A 18.897638 18.897638 0 0 0 77.269531 75.501953 C 77.268473 75.513292 77.266721 75.525771 77.265625 75.537109 C 77.265323 75.540889 77.265927 75.543095 77.265625 75.546875 C 77.264358 75.563153 77.264898 75.579425 77.263672 75.595703 A 18.897638 18.897638 0 0 0 77.263672 75.599609 A 18.897638 18.897638 0 0 0 77.212891 77.160156 C 77.213122 77.190773 77.208598 77.221334 77.208984 77.251953 C 77.209514 77.285969 77.209955 77.320697 77.210938 77.355469 C 77.211334 77.375698 77.214389 77.395787 77.214844 77.416016 A 18.897638 18.897638 0 0 0 77.214844 77.425781 A 18.897638 18.897638 0 0 0 77.3125 78.951172 C 77.317052 78.995928 77.315428 79.041224 77.320312 79.085938 C 77.320615 79.088508 77.32001 79.08997 77.320312 79.09375 C 77.322316 79.112648 77.324345 79.127965 77.328125 79.146484 C 77.328503 79.149773 77.3297 79.154424 77.330078 79.158203 C 77.332976 79.183723 77.338793 79.208866 77.341797 79.234375 A 18.897638 18.897638 0 0 0 77.34375 79.248047 A 18.897638 18.897638 0 0 0 77.587891 80.761719 C 77.595441 80.799206 77.597694 80.837558 77.605469 80.875 C 77.606678 80.882559 77.606212 80.886972 77.607422 80.894531 C 77.610408 80.90587 77.611455 80.920302 77.615234 80.931641 C 77.616066 80.93542 77.618423 80.93958 77.619141 80.943359 C 77.630263 80.996011 77.648576 81.047051 77.660156 81.099609 A 18.897638 18.897638 0 0 0 78.009766 82.443359 A 18.897638 18.897638 0 0 0 78.015625 82.464844 C 78.032232 82.520288 78.041488 82.577497 78.058594 82.632812 A 18.897638 18.897638 0 0 0 78.070312 82.666016 C 78.074092 82.681134 78.076425 82.696197 78.083984 82.710938 C 78.085232 82.714717 78.086795 82.718877 78.087891 82.722656 C 78.106368 82.781338 78.131317 82.838 78.150391 82.896484 A 18.897638 18.897638 0 0 0 78.574219 84.056641 C 78.605753 84.135388 78.629519 84.216483 78.662109 84.294922 C 78.664226 84.298701 78.666067 84.306767 78.669922 84.310547 C 78.692599 84.360059 78.712454 84.409473 78.734375 84.458984 C 78.754402 84.505957 78.780331 84.550811 78.800781 84.597656 A 18.897638 18.897638 0 0 0 79.363281 85.765625 C 79.394324 85.82516 79.417563 85.888038 79.449219 85.947266 C 79.479455 86.006226 79.512796 86.064842 79.544922 86.123047 C 79.581024 86.188897 79.625182 86.25094 79.662109 86.316406 A 18.897638 18.897638 0 0 0 80.255859 87.294922 C 80.304456 87.369957 80.344782 87.448967 80.394531 87.523438 C 80.432327 87.579752 80.469639 87.635847 80.507812 87.691406 C 80.5582 87.765098 80.618452 87.833151 80.669922 87.90625 A 18.897638 18.897638 0 0 0 81.298828 88.746094 C 81.369213 88.835062 81.429699 88.92969 81.501953 89.017578 C 81.505733 89.025137 81.510019 89.02955 81.517578 89.037109 C 81.555373 89.082842 81.592686 89.128474 81.630859 89.173828 L 81.646484 89.191406 C 81.713358 89.270789 81.791019 89.343352 81.859375 89.421875 A 18.897638 18.897638 0 0 0 81.880859 89.447266 A 18.897638 18.897638 0 0 0 82.574219 90.195312 C 82.654647 90.277928 82.724445 90.367882 82.806641 90.449219 C 82.81042 90.452998 82.816533 90.461191 82.820312 90.46875 C 82.84299 90.491427 82.86442 90.51166 82.886719 90.533203 C 82.890498 90.536983 82.894785 90.541142 82.902344 90.544922 C 82.977636 90.61836 83.064049 90.683408 83.140625 90.755859 A 18.897638 18.897638 0 0 0 83.148438 90.763672 A 18.897638 18.897638 0 0 0 84.019531 91.535156 C 84.119598 91.618824 84.208074 91.711042 84.310547 91.792969 L 129.61133 128.00391 L 84.306641 164.22266 A 18.897638 18.897638 0 0 0 81.347656 190.7832 A 18.897638 18.897638 0 0 0 107.9082 193.75 L 126.38867 178.97461 C 126.34717 179.01559 126.30928 179.0567 126.26758 179.09766 L 159.34375 152.6543 L 171.69141 142.78125 C 171.97941 142.55108 172.25684 142.31292 172.52734 142.07031 L 172.55078 142.05078 L 172.55273 142.04883 C 172.7984 141.82773 173.03439 141.59981 173.26562 141.36914 C 173.3227 141.31245 173.37885 141.25471 173.43555 141.19727 A 18.899528 18.899528 0 0 0 173.48047 141.15234 C 173.48803 141.14478 173.49635 141.13451 173.50391 141.12695 C 173.63959 140.98673 173.77187 140.8446 173.90234 140.70117 A 18.899528 18.899528 0 0 0 173.91992 140.68164 C 173.92748 140.67408 173.9358 140.66186 173.94336 140.6543 C 174.06771 140.51597 174.19074 140.37652 174.31055 140.23438 C 174.38954 140.1414 174.46782 140.04761 174.54492 139.95312 C 174.67865 139.78893 174.79394 139.61182 174.92188 139.44336 A 18.899528 18.899528 0 0 0 175.25781 138.98438 C 175.37671 138.81763 175.50972 138.66049 175.62305 138.49023 A 18.899528 18.899528 0 0 0 175.63086 138.47852 C 175.63377 138.47474 175.63294 138.4724 175.63672 138.46484 C 175.72028 138.33889 175.78858 138.20394 175.86914 138.07617 A 18.899528 18.899528 0 0 0 176.33594 137.29492 C 176.40906 137.16554 176.49449 137.04325 176.56445 136.91211 C 176.62445 136.79972 176.66894 136.6799 176.72656 136.56641 A 18.899528 18.899528 0 0 0 176.74805 136.52344 A 18.899528 18.899528 0 0 0 177.18359 135.60156 A 18.899528 18.899528 0 0 0 177.19531 135.57617 C 177.24148 135.4704 177.29945 135.37039 177.34375 135.26367 C 177.34432 135.26231 177.34514 135.26098 177.3457 135.25977 C 177.38878 135.15593 177.41774 135.04612 177.45898 134.94141 A 18.899528 18.899528 0 0 0 177.86523 133.8125 C 177.89478 133.72083 177.93472 133.63313 177.96289 133.54102 C 178.03357 133.30782 178.10013 133.07351 178.16211 132.83789 C 178.17345 132.79821 178.18202 132.75844 178.19336 132.71875 C 178.2236 132.60423 178.25246 132.48952 178.2793 132.375 A 18.899528 18.899528 0 0 0 178.2832 132.35938 C 178.28521 132.35182 178.28724 132.34532 178.29102 132.33398 C 178.31747 132.22287 178.34262 132.1115 178.36719 132 A 18.899528 18.899528 0 0 0 178.37891 131.94727 C 178.38136 131.93593 178.38065 131.92345 178.38477 131.91211 C 178.42974 131.6963 178.47235 131.48047 178.50977 131.26367 C 178.52866 131.15633 178.54934 131.04912 178.56445 130.94141 C 178.60376 130.68893 178.63887 130.43724 178.66797 130.18359 L 178.68945 129.99414 C 178.69047 129.9828 178.69249 129.9724 178.69336 129.96484 C 178.7236 129.67269 178.74742 129.37908 178.76367 129.08594 A 18.899528 18.899528 0 0 0 178.76367 129.07422 L 178.76562 129.04688 C 178.76593 129.03932 178.76528 129.03686 178.76562 129.0293 C 178.78452 128.69254 178.79297 128.35475 178.79297 128.01758 C 178.79297 127.6744 178.78452 127.33285 178.76562 126.99023 C 178.75051 126.68938 178.72397 126.38791 178.69336 126.08789 A 18.899528 18.899528 0 0 0 178.69336 126.08398 C 178.68958 126.03976 178.68529 125.99539 178.67773 125.95117 A 18.899528 18.899528 0 0 0 178.66406 125.81836 C 178.66391 125.81707 178.66421 125.81559 178.66406 125.81445 C 178.63761 125.58163 178.60389 125.34914 178.56836 125.11719 C 178.55702 125.03328 178.54177 124.94914 178.5293 124.86523 C 178.52552 124.84256 178.52123 124.81835 178.51367 124.79492 C 178.47588 124.57835 178.4356 124.36199 178.39062 124.14648 L 178.38281 124.11523 C 178.36014 124.00638 178.33669 123.89753 178.3125 123.78906 C 178.30494 123.76639 178.30053 123.74061 178.29297 123.7168 C 178.27742 123.65272 178.26173 123.58911 178.24609 123.52539 A 18.899528 18.899528 0 0 0 178.18945 123.30078 A 18.899528 18.899528 0 0 0 178.17773 123.25195 C 178.17572 123.24416 178.1739 123.23631 178.17188 123.22852 A 18.899528 18.899528 0 0 0 177.95117 122.45508 C 177.94346 122.42984 177.9375 122.40411 177.92969 122.37891 C 177.92759 122.3722 177.92398 122.36607 177.92188 122.35938 C 177.92169 122.35879 177.92206 122.35801 177.92188 122.35742 A 18.899528 18.899528 0 0 0 171.6875 113.23633 L 107.9082 62.25 A 18.897638 18.897638 0 0 0 96.058594 58.115234 z "
          transform="scale(0.26458333)" />
      <g id="g1361" transform="translate(9.0315156,0.29956461)">
        <path inkscape:connector-curvature="0"
            style="color:#000000;font-style:normal;font-variant:normal;font-weight:normal;font-stretch:normal;font-size:medium;line-height:normal;font-family:sans-serif;font-variant-ligatures:normal;font-variant-position:normal;font-variant-caps:normal;font-variant-numeric:normal;font-variant-alternates:normal;font-variant-east-asian:normal;font-feature-settings:normal;font-variation-settings:normal;text-indent:0;text-align:start;text-decoration:none;text-decoration-line:none;text-decoration-style:solid;text-decoration-color:#000000;letter-spacing:normal;word-spacing:normal;text-transform:none;writing-mode:lr-tb;direction:ltr;text-orientation:mixed;dominant-baseline:auto;baseline-shift:baseline;text-anchor:start;white-space:normal;shape-padding:0;shape-margin:0;inline-size:0;clip-rule:nonzero;display:inline;overflow:visible;visibility:visible;isolation:auto;mix-blend-mode:normal;color-interpolation:sRGB;color-interpolation-filters:linearRGB;solid-color:#000000;solid-opacity:1;vector-effect:none;fill:url(#linearGradient1265);fill-opacity:1;fill-rule:nonzero;stroke:none;stroke-width:10;stroke-linecap:round;stroke-linejoin:round;stroke-miterlimit:4;stroke-dasharray:none;stroke-dashoffset:0;stroke-opacity:1;color-rendering:auto;image-rendering:auto;shape-rendering:auto;text-rendering:auto;enable-background:accumulate;stop-color:#000000"
            d="m 16.384238,15.07688 a 5,5 0 0 0 -3.89257,1.87695 5,5 0 0 0 0.7832,7.02734 l 11.99023,9.58399 -11.99023,9.58593 a 5,5 0 0 0 -0.7832,7.02735 5,5 0 0 0 7.02734,0.78515 L 36.394007,37.47141 a 5.0005,5.0005 0 0 0 0,-7.81055 L 19.519008,16.17063 a 5,5 0 0 0 -3.13477,-1.09375 z"
            id="path1164" />
        <path id="path1166"
            style="color:#000000;font-style:normal;font-variant:normal;font-weight:normal;font-stretch:normal;font-size:medium;line-height:normal;font-family:sans-serif;font-variant-ligatures:normal;font-variant-position:normal;font-variant-caps:normal;font-variant-numeric:normal;font-variant-alternates:normal;font-variant-east-asian:normal;font-feature-settings:normal;font-variation-settings:normal;text-indent:0;text-align:start;text-decoration:none;text-decoration-line:none;text-decoration-style:solid;text-decoration-color:#000000;letter-spacing:normal;word-spacing:normal;text-transform:none;writing-mode:lr-tb;direction:ltr;text-orientation:mixed;dominant-baseline:auto;baseline-shift:baseline;text-anchor:start;white-space:normal;shape-padding:0;shape-margin:0;inline-size:0;clip-rule:nonzero;display:inline;overflow:visible;visibility:visible;isolation:auto;mix-blend-mode:normal;color-interpolation:sRGB;color-interpolation-filters:linearRGB;solid-color:#000000;solid-opacity:1;vector-effect:none;fill:url(#linearGradient1136);fill-opacity:1;fill-rule:nonzero;stroke:none;stroke-width:10;stroke-linecap:round;stroke-linejoin:round;stroke-miterlimit:4;stroke-dasharray:none;stroke-dashoffset:0;stroke-opacity:1;color-rendering:auto;image-rendering:auto;shape-rendering:auto;text-rendering:auto;enable-background:accumulate;stop-color:#000000"
            d="m 16.383068,15.07711 c -0.0869,2.4e-4 -0.17318,0.003 -0.25941,0.007 -0.004,2.4e-4 -0.009,2.7e-4 -0.0134,5.2e-4 -0.005,2.7e-4 -0.0107,7.7e-4 -0.016,10e-4 -0.0915,0.006 -0.18278,0.0138 -0.27337,0.0243 -0.0867,0.0101 -0.17313,0.0227 -0.2589,0.0372 a 5,5 0 0 0 -0.008,10e-4 c -0.008,10e-4 -0.0162,0.003 -0.0243,0.004 -0.002,4e-4 -0.004,0.001 -0.007,0.002 a 5,5 0 0 0 -0.004,5.2e-4 c -0.0791,0.0141 -0.15754,0.0302 -0.23564,0.048 -0.007,0.002 -0.0138,0.003 -0.0207,0.005 -0.0849,0.0198 -0.16917,0.0415 -0.2527,0.0656 -3.6e-4,1.1e-4 -6.7e-4,4.2e-4 -10e-4,5.2e-4 -0.006,0.002 -0.0113,0.004 -0.0171,0.005 -0.0851,0.0249 -0.1697,0.0523 -0.25321,0.0816 a 5,5 0 0 0 -0.002,5.1e-4 c -8.6e-4,1.8e-4 -0.002,1.9e-4 -0.003,5.2e-4 -0.003,9.8e-4 -0.005,0.002 -0.008,0.003 -0.0825,0.0292 -0.16419,0.0605 -0.24495,0.0941 -0.0835,0.0346 -0.16604,0.0715 -0.24753,0.11059 l -0.005,0.003 a 5,5 0 0 0 -0.004,0.002 c -0.002,8.2e-4 -0.003,0.002 -0.005,0.003 -0.001,5e-4 -0.002,10e-4 -0.003,0.002 -0.0763,0.037 -0.15147,0.076 -0.22583,0.11679 -0.002,10e-4 -0.004,0.002 -0.006,0.003 -0.002,10e-4 -0.004,0.002 -0.006,0.003 l -0.003,0.002 c -2.6e-4,1.8e-4 -7.7e-4,2.5e-4 -10e-4,5.2e-4 -8.8e-4,4.8e-4 -0.002,10e-4 -0.003,0.002 -0.0763,0.0423 -0.15127,0.0866 -0.22531,0.1328 -6.6e-4,4.1e-4 -10e-4,6.3e-4 -0.002,10e-4 -0.003,0.002 -0.006,0.003 -0.008,0.005 -0.0727,0.0456 -0.14413,0.0932 -0.21446,0.14262 -0.002,0.001 -0.003,0.002 -0.005,0.004 -0.005,0.003 -0.009,0.007 -0.014,0.01 -7e-4,4.9e-4 -10e-4,0.001 -0.002,0.002 -0.0691,0.0491 -0.13692,0.10029 -0.20361,0.15296 -0.007,0.005 -0.0131,0.0103 -0.0196,0.0155 -0.0676,0.0539 -0.13407,0.10939 -0.19895,0.16692 -7.3e-4,6.4e-4 -0.001,10e-4 -0.002,0.002 -0.003,0.003 -0.007,0.006 -0.01,0.009 -10e-4,10e-4 -0.003,0.002 -0.004,0.004 -0.0662,0.0592 -0.13109,0.12051 -0.1943,0.18345 -0.0663,0.066 -0.13096,0.13408 -0.19379,0.20412 -0.0628,0.07 -0.1238,0.14207 -0.18293,0.21601 -0.10535,0.13178 -0.20258,0.26756 -0.29249,0.40617 -0.004,0.007 -0.009,0.0134 -0.0129,0.0202 -0.0843,0.13136 -0.1614,0.26507 -0.23203,0.40153 -8.1e-4,0.002 -0.002,0.003 -0.003,0.005 -0.006,0.0124 -0.0125,0.0248 -0.0186,0.0372 -0.0672,0.13285 -0.12749,0.26844 -0.1819,0.40515 -0.008,0.0192 -0.0153,0.0385 -0.0227,0.0579 l -0.002,0.005 c -0.0499,0.13046 -0.0939,0.26224 -0.13229,0.39533 -0.006,0.0191 -0.0111,0.0382 -0.0165,0.0574 -0.0382,0.1385 -0.0702,0.27816 -0.0961,0.41858 -10e-5,5.3e-4 -4.2e-4,0.001 -5.2e-4,0.002 -0.003,0.0184 -0.007,0.0368 -0.01,0.0553 l -5.2e-4,0.003 c -0.025,0.14511 -0.0438,0.29105 -0.0558,0.43718 a 5,5 0 0 0 -0.001,0.0124 c -2.8e-4,0.003 -7.1e-4,0.006 -10e-4,0.009 -8e-5,0.001 8e-5,0.002 0,0.003 -0.0117,0.15036 -0.0169,0.30071 -0.015,0.45114 1.4e-4,0.009 2.5e-4,0.0182 5.1e-4,0.0274 0.003,0.15296 0.0123,0.30589 0.0289,0.45785 8e-5,6.8e-4 -8e-5,0.001 0,0.002 5.3e-4,0.005 10e-4,0.009 0.002,0.0139 10e-5,8.7e-4 4.2e-4,0.002 5.2e-4,0.003 0.0173,0.15234 0.0417,0.30398 0.0729,0.45424 3.2e-4,0.002 2e-4,0.003 5.2e-4,0.005 7.9e-4,0.003 0.001,0.007 0.002,0.01 2.2e-4,0.001 8.1e-4,0.002 10e-4,0.003 0.0318,0.15054 0.0707,0.29964 0.11627,0.447 a 5,5 0 0 0 0.003,0.009 c 0.001,0.004 0.002,0.008 0.004,0.0119 3.3e-4,0.001 7.1e-4,0.002 10e-4,0.003 0.0443,0.14069 0.0951,0.27921 0.15193,0.41599 5.6e-4,10e-4 9.8e-4,0.003 0.002,0.004 0.006,0.0131 0.0113,0.0262 0.0171,0.0393 0.0569,0.13346 0.12031,0.26502 0.18913,0.39378 0.008,0.0156 0.0168,0.0311 0.0253,0.0465 0.0692,0.12622 0.14413,0.24978 0.22479,0.37052 0.01,0.0149 0.0199,0.0297 0.03,0.0444 0.0821,0.12007 0.16958,0.23721 0.26303,0.35088 10e-4,0.002 0.002,0.003 0.004,0.005 0.01,0.0121 0.0199,0.0242 0.03,0.0362 l 0.004,0.005 c 0.0965,0.11455 0.19884,0.22581 0.30695,0.33279 10e-4,10e-4 0.003,0.003 0.004,0.005 0.006,0.006 0.0117,0.0114 0.0176,0.0171 0.001,0.001 0.002,0.002 0.004,0.003 0.11779,0.11489 0.24136,0.2253 0.37258,0.33021 l 11.99049,9.58443 c 3.70135,3.31083 4.05605,8.65695 -0.88936,13.51493 l 8.75141,-6.99647 3.266979,-2.61224 c 0.0762,-0.0609 0.14961,-0.12391 0.22118,-0.1881 l 0.006,-0.005 c 0,0 5.2e-4,-5.2e-4 5.2e-4,-5.2e-4 0.065,-0.0585 0.12744,-0.1188 0.18862,-0.17983 0.0151,-0.015 0.03,-0.0303 0.045,-0.0455 a 5.0005001,5.0005001 0 0 0 0.0119,-0.0119 c 0.002,-0.002 0.004,-0.005 0.006,-0.007 0.0359,-0.0371 0.0709,-0.0747 0.10542,-0.11265 a 5.0005001,5.0005001 0 0 0 0.005,-0.005 c 0.002,-0.002 0.004,-0.005 0.006,-0.007 0.0329,-0.0366 0.0654,-0.0735 0.0971,-0.11111 0.0209,-0.0246 0.0416,-0.0494 0.062,-0.0744 0.10142,-0.12452 0.19657,-0.25384 0.28525,-0.38706 a 5.0005001,5.0005001 0 0 0 0.002,-0.003 c 7.7e-4,-10e-4 0.001,-0.002 0.002,-0.004 0.0883,-0.1331 0.17036,-0.27005 0.24546,-0.41082 0.0758,-0.142 0.14441,-0.28734 0.20619,-0.43615 1.5e-4,-3.6e-4 3.7e-4,-6.8e-4 5.2e-4,-10e-4 0.0616,-0.14847 0.11613,-0.30048 0.1633,-0.45475 0.0187,-0.0617 0.0363,-0.12369 0.0527,-0.18603 0.003,-0.0105 0.005,-0.021 0.008,-0.0315 0.008,-0.0303 0.0156,-0.0606 0.0227,-0.0909 a 5.0005001,5.0005001 0 0 0 10e-4,-0.004 c 5.3e-4,-0.002 0.001,-0.004 0.002,-0.007 0.007,-0.0294 0.0137,-0.0589 0.0202,-0.0884 a 5.0005001,5.0005001 0 0 0 0.003,-0.014 c 6.5e-4,-0.003 9.1e-4,-0.006 0.002,-0.009 0.0119,-0.0571 0.0232,-0.11421 0.0331,-0.17157 0.005,-0.0284 0.01,-0.0568 0.014,-0.0853 0.0104,-0.0668 0.0197,-0.1334 0.0274,-0.20051 0.002,-0.0167 0.004,-0.0334 0.006,-0.0501 2.7e-4,-0.003 7.7e-4,-0.006 10e-4,-0.008 0.008,-0.0773 0.0143,-0.15499 0.0186,-0.23255 a 5.0005001,5.0005001 0 0 0 0,-0.003 l 5.2e-4,-0.007 c 8e-5,-0.002 -9e-5,-0.003 0,-0.005 0.005,-0.0891 0.007,-0.17848 0.007,-0.26769 0,-0.0908 -0.002,-0.18116 -0.007,-0.27181 -0.004,-0.0796 -0.011,-0.15937 -0.0191,-0.23875 a 5.0005001,5.0005001 0 0 0 0,-10e-4 c -0.001,-0.0117 -0.002,-0.0234 -0.004,-0.0351 a 5.0005001,5.0005001 0 0 0 -0.004,-0.0351 c -4e-5,-3.4e-4 4e-5,-7e-4 0,-10e-4 -0.007,-0.0616 -0.0159,-0.12311 -0.0253,-0.18448 -0.003,-0.0222 -0.007,-0.0445 -0.0103,-0.0667 -10e-4,-0.006 -0.002,-0.0124 -0.004,-0.0186 -0.01,-0.0573 -0.0207,-0.11454 -0.0326,-0.17156 l -0.002,-0.008 c -0.006,-0.0288 -0.0122,-0.0576 -0.0186,-0.0863 -0.002,-0.006 -0.003,-0.0128 -0.005,-0.0191 -0.01,-0.0412 -0.0199,-0.082 -0.0305,-0.12299 -0.02,-0.0775 -0.0419,-0.15453 -0.0656,-0.231 -0.0479,-0.153 -0.10327,-0.30341 -0.16536,-0.45061 -0.062,-0.14706 -0.131,-0.29068 -0.20671,-0.43098 a 5.0005001,5.0005001 0 0 0 0,-5.2e-4 c -7e-5,-1.3e-4 7e-5,-3.9e-4 0,-5.2e-4 -0.15154,-0.28072 -0.33012,-0.54694 -0.5333,-0.79478 -0.003,-0.004 -0.007,-0.009 -0.0103,-0.0129 -0.006,-0.007 -0.0117,-0.0141 -0.0176,-0.0212 -0.005,-0.006 -0.01,-0.0109 -0.0145,-0.0165 -0.0309,-0.0367 -0.0621,-0.0732 -0.0941,-0.10903 a 5.0005001,5.0005001 0 0 0 -0.0171,-0.0191 c -0.003,-0.004 -0.007,-0.007 -0.01,-0.0109 -0.0344,-0.0378 -0.0691,-0.0752 -0.1049,-0.11214 -0.003,-0.003 -0.006,-0.006 -0.009,-0.009 -0.01,-0.0101 -0.0196,-0.02 -0.0295,-0.03 a 5.0005001,5.0005001 0 0 0 -0.0227,-0.0232 c -0.002,-0.002 -0.004,-0.005 -0.007,-0.007 -0.0533,-0.0529 -0.10815,-0.10505 -0.16434,-0.15606 -0.008,-0.007 -0.0151,-0.0142 -0.0227,-0.0212 a 5.0005001,5.0005001 0 0 0 -0.009,-0.008 c -5.4e-4,-4.8e-4 -10e-4,-10e-4 -0.002,-0.002 -0.0684,-0.061 -0.1382,-0.12071 -0.21084,-0.1788 L 19.519558,16.17546 c -0.10872,-0.0869 -0.22055,-0.16842 -0.33538,-0.24546 a 5,5 0 0 0 -0.003,-0.002 l -0.005,-0.004 c -0.002,-10e-4 -0.004,-0.002 -0.006,-0.004 -9.6e-4,-6.4e-4 -0.002,-9.1e-4 -0.003,-0.002 -0.1139,-0.0758 -0.23064,-0.14699 -0.34985,-0.21291 a 5,5 0 0 0 -0.002,-0.002 l -0.001,-5.2e-4 c -2.6e-4,-1.8e-4 -7.7e-4,-2.5e-4 -0.001,-5.1e-4 -0.12265,-0.0677 -0.24813,-0.13008 -0.37569,-0.18707 a 5,5 0 0 0 -0.001,-5.2e-4 c -2.6e-4,-1.5e-4 -7.6e-4,-2.5e-4 -10e-4,-5.1e-4 -9.9e-4,-4.5e-4 -0.002,-5.9e-4 -0.003,-0.001 -0.12627,-0.0562 -0.2546,-0.10688 -0.38499,-0.15244 l -0.002,-5.2e-4 a 5,5 0 0 0 -5.1e-4,-5.2e-4 c -8e-4,-2.3e-4 -0.002,-2.5e-4 -0.003,-5.1e-4 -0.1312,-0.0457 -0.26427,-0.0863 -0.39894,-0.12093 l -0.002,-5.1e-4 c -3.7e-4,-10e-5 -6.6e-4,-3.8e-4 -10e-4,-5.2e-4 a 5,5 0 0 0 -5.2e-4,0 c -3.3e-4,-8e-5 -7.1e-4,8e-5 -0.001,0 -0.133,-0.0341 -0.26738,-0.0627 -0.40308,-0.0858 -0.005,-8e-4 -0.0107,-0.002 -0.016,-0.003 -0.13346,-0.0223 -0.26818,-0.0393 -0.40359,-0.0506 l -0.003,-5.2e-4 a 5,5 0 0 0 -0.01,-5.1e-4 c -0.13896,-0.0113 -0.27879,-0.0169 -0.4191,-0.0165 h -5.1e-4 c -1.7e-4,0 -3.5e-4,0 -5.2e-4,0 z"
            inkscape:connector-curvature="0" />
      </g>
    </g>
  </g>
</svg>
